<?xml version="1.0" encoding="utf-8"?>
<!-- Generator: Adobe Illustrator 26.5.0, SVG Export Plug-In . SVG Version: 6.00 Build 0)  -->
<svg version="1.1" id="Calque_1" xmlns="http://www.w3.org/2000/svg" xmlns:xlink="http://www.w3.org/1999/xlink" x="0px" y="0px"
	 viewBox="0 0 512 512" style="enable-background:new 0 0 512 512;" xml:space="preserve">
<style type="text/css">
	.st0{fill:#FFFFFF;}
</style>
<path class="st0" d="M128.3,161.2c-16.3,0-29.5,10.6-29.5,23.7c0,7.4,4.3,14.5,11.8,19l133.5,80.6c7,4.2,16.6,4.2,23.5,0l133.5-80.6
	c7.4-4.5,11.8-11.5,11.8-19c0-13.1-13.2-23.7-29.5-23.7C383.6,161.2,128.3,161.2,128.3,161.2z M98.9,216.5v102.7
	c0,17.4,17.6,31.6,39.3,31.6h235.6c21.6,0,39.3-14.1,39.3-31.6V216.5l-133.7,80.6c-14,8.5-33.1,8.5-47.1,0L98.9,216.5z"/>
</svg>
