<?xml version="1.0" encoding="utf-8"?>
<!-- Generator: Adobe Illustrator 26.5.0, SVG Export Plug-In . SVG Version: 6.00 Build 0)  -->
<svg version="1.1" id="Calque_1" xmlns="http://www.w3.org/2000/svg" xmlns:xlink="http://www.w3.org/1999/xlink" x="0px" y="0px"
	 viewBox="0 0 512 512" style="enable-background:new 0 0 512 512;" xml:space="preserve">
<path d="M81.9,109.2c-22.2,0-40.2,16.4-40.2,36.7c0,11.5,5.9,22.4,16.1,29.4L239.9,300c9.5,6.5,22.6,6.5,32.1,0l182.1-124.8
	c10.1-7,16.1-17.8,16.1-29.4c0-20.3-18-36.7-40.2-36.7C430.1,109.2,81.9,109.2,81.9,109.2z M41.8,194.8v159c0,27,24,48.9,53.6,48.9
	h321.4c29.5,0,53.6-21.9,53.6-48.9v-159L288.1,319.6c-19.1,13.1-45.2,13.1-64.3,0L41.8,194.8z"/>
</svg>
