<?xml version="1.0" encoding="utf-8"?>
<!-- Generator: Adobe Illustrator 26.5.0, SVG Export Plug-In . SVG Version: 6.00 Build 0)  -->
<svg version="1.1" id="Calque_1" xmlns="http://www.w3.org/2000/svg" xmlns:xlink="http://www.w3.org/1999/xlink" x="0px" y="0px"
	 viewBox="0 0 840 561" style="enable-background:new 0 0 840 561;" xml:space="preserve">
<style type="text/css">
	.st0{fill:#FFFFFF;}
</style>
<g transform="translate(0.000000,561.000000) scale(0.100000,-0.100000)">
	<path class="st0" d="M2817.9,5116c-72-235-72-439-1-645l24-70l-54-56c-188-197-257-464-259-990c-1-230,2-265,22-360
		c98-449,397-757,882-910c69-22,176-49,239-60s116-22,119-24c2-3-8-20-22-38c-53-71-97-203-119-357l-12-84l-53-18
		c-82-28-205-42-301-36c-257,19-438,132-596,372c-108,164-199,248-326,297c-71,28-254,37-284,15c-29-22-9-55,66-107
		c35-24,84-66,107-94c72-84,195-276,271-423c82-159,157-256,257-332c87-66,207-125,310-152c134-36,393-37,532-2l22,5V726V405h640
		h640v584c0,479-3,598-15,663c-24,128-81,278-123,326c-8,9-13,19-10,22s45,12,94,21c631,107,1031,448,1146,974c20,95,22,130,22,365
		c-1,526-69,783-261,987l-54,57l16,37c57,138,78,345,51,504c-24,137-64,260-85,260c-36,0-129-33-200-71c-132-71-250-178-366-332
		c-58-78-58-78-79-58c-90,82-317,128-676,138c-425,11-731-34-859-127l-40-30l-57,78c-139,189-328,337-493,386
		C2846.9,5214,2847.9,5215,2817.9,5116z"/>
</g>
</svg>
