<?xml version="1.0" encoding="utf-8"?>
<!-- Generator: Adobe Illustrator 26.5.0, SVG Export Plug-In . SVG Version: 6.00 Build 0)  -->
<svg version="1.1" id="Calque_1" xmlns="http://www.w3.org/2000/svg" xmlns:xlink="http://www.w3.org/1999/xlink" x="0px" y="0px"
	 viewBox="0 0 225 225" style="enable-background:new 0 0 225 225;" xml:space="preserve">
<g transform="translate(0.000000,225.000000) scale(0.100000,-0.100000)">
	<path d="M945,1894c-235-52-430-205-534-417c-64-133-84-213-84-352c0-126,19-214,68-321c131-287,404-464,715-464
		c218,0,422,89,572,248c201,214,266,509,173,789c-39,115-97,207-194,304s-189,154-316,195C1242,1910,1054,1918,945,1894z M1320,1790
		c185-62,328-185,413-356c53-105,71-182,71-309c0-123-18-203-64-297c-130-262-377-409-664-396c-188,9-346,84-479,228
		c-120,130-180,285-180,465c0,122,19,200,74,315c34,70,58,101,133,175c102,101,186,151,316,185C1042,1827,1224,1822,1320,1790z"/>
	<path d="M740,1130V780h185h185v55v55H985H860v295v295h-60h-60V1130z"/>
	<path d="M1000,1256v-226h55h55v171v171l114-4c105-3,117-5,140-27c26-24,34-68,20-106c-9-23-57-45-99-45h-35v-55v-55h45
		c55,0,110-21,124-48c12-23,14-71,5-97c-10-26-59-45-119-45h-55v-55v-55h58c115,0,203,47,231,123c16,40,14,113-4,146
		c-17,33-65,77-96,86c-21,7-21,8,6,25c45,29,65,69,65,129c0,75-34,131-97,163c-44,21-63,23-230,26l-183,4V1256z"/>
</g>
</svg>
