<?xml version="1.0" encoding="utf-8"?>
<!-- Generator: Adobe Illustrator 26.5.0, SVG Export Plug-In . SVG Version: 6.00 Build 0)  -->
<svg version="1.1" id="Calque_1" xmlns="http://www.w3.org/2000/svg" xmlns:xlink="http://www.w3.org/1999/xlink" x="0px" y="0px"
	 viewBox="0 0 45 45" style="enable-background:new 0 0 45 45;" xml:space="preserve">
<style type="text/css">
	.st0{fill:#FFFFFF;}
</style>
<g>
	<polygon class="st0" points="11,19.8 10.8,32.6 11.3,33.3 11.7,33.7 12.3,34 24.8,34.1 25.6,33.3 25.9,31.7 25.7,30.3 20.6,25.2 
		20,24.7 15.7,20.3 13.6,18.8 12.1,18.8 	"/>
	<polygon class="st0" points="16.6,13.6 18,13.8 21,14.4 23.2,15.3 25.9,16.4 27.6,17.8 28.7,19.4 29.7,21.3 30.4,23.2 31.1,25.2 
		31.4,27 31.6,28.8 31.8,29.4 32.1,29.7 32.4,29.9 32.9,30 33.2,29.9 33.5,29.8 33.8,29.6 34.1,29 34.2,28.6 34.2,28.1 34,26.3 
		33.7,24.7 32.7,21.8 31.8,19.7 30.8,17.8 29.5,16.1 27.8,14.6 25.9,13.3 23.9,12.6 22,12.1 19.7,11.5 18.7,11.2 16.6,10.9 
		16.1,10.9 15.4,11.1 15.3,11.5 15.1,11.9 15.2,12.4 15.3,12.9 15.8,13.5 	"/>
</g>
</svg>
