<?xml version="1.0" encoding="utf-8"?>
<!-- Generator: Adobe Illustrator 26.5.0, SVG Export Plug-In . SVG Version: 6.00 Build 0)  -->
<svg version="1.1" id="Calque_1" xmlns="http://www.w3.org/2000/svg" xmlns:xlink="http://www.w3.org/1999/xlink" x="0px" y="0px"
	 viewBox="0 0 45 45" style="enable-background:new 0 0 45 45;" xml:space="preserve">
<g id="surface1">
	<path d="M5.2,22.5v17.3h34.6V5.2H5.2V22.5z M19.6,13.9c0.5,0.1,0.7,0.1,0.9,0l0.2-0.1L20.5,14c-0.1,0.1-0.2,0.2-0.1,0.2
		c0.2,0,1.8,0.4,2.2,0.6c0.2,0.1,0.3,0.1,0.4,0.1s0.2,0,0.1,0C23,14.9,23.3,15,23.6,15c0.1,0,0.1,0,0.1,0.1c-0.1,0.1,0,0.1,0.2,0
		C23.9,15,24,15,24,15v0.1c0,0.2,0.2,0.3,0.3,0.2c0.1,0,0.2,0,0.2,0c0,0.2,0.5,0.4,0.6,0.3c0.1,0,0.1,0,0.1,0.1
		c-0.1,0.2,0.7,0.6,0.9,0.6c0.1,0,0.1,0,0,0.1s0,0.2,0.3,0.4c0.3,0.2,0.5,0.3,0.5,0.2s0.1,0,0.1,0.1s0.1,0.2,0.3,0.5
		c0.2,0.2,0.3,0.2,0.2,0.2s0-0.1,0-0.1c0.1,0,0.1,0.1,0.1,0.2c0,0.2,0.5,0.7,0.6,0.6c0-0.1,0.1,0,0,0.1c-0.1,0.1,0.1,0.3,0.3,0.5
		c0.2,0.2,0.5,0.5,0.5,0.7c0.1,0.2,0.2,0.2,0.2,0.2c0.1,0,0.1,0,0,0.1c-0.1,0.2,0.2,0.5,0.3,0.5c0.1,0,0.1,0,0,0
		c0,0.1,0.1,0.4,0.3,0.8c0.4,0.7,0.8,2.1,1,2.7c0.4,1.8,0.5,3.5,0.2,3.8c-0.1,0.1-0.1,0.2-0.1,0.2c0,0.1,0,0.1,0,0.1s-0.2,0-0.5,0.1
		c-0.3,0.1-0.5,0.1-0.6,0c-0.5-0.2-0.6-0.5-0.6-1.7c0-0.7-0.2-1.9-0.3-1.9c-0.1,0-0.1,0,0-0.1c0.1-0.2-0.6-2.2-0.8-2.4
		c-0.1-0.1-0.2-0.2-0.2-0.2c0-0.1-0.1-0.2-0.2-0.3c-0.1-0.1-0.2-0.2-0.2-0.2s-0.1-0.1-0.2,0c-0.1,0-0.1,0,0-0.1s0.1-0.2,0.1-0.2
		c-0.1-0.1-0.1-0.1-0.2,0c-0.1,0.1-0.1,0.1,0-0.1c0.1-0.2,0-0.2-0.1-0.2s-0.2,0-0.1-0.2c0-0.2,0-0.2-0.1-0.2c-0.1,0-0.1,0-0.1-0.1
		c0-0.1-0.1-0.2-0.2-0.4c-0.2-0.2-0.3-0.3-0.2-0.2s0,0.1,0,0.1c-0.1,0-0.1-0.1-0.1-0.2C26.6,19.6,26,19,26,19S25.9,19,26,19
		c0-0.1,0-0.1,0-0.1s-0.2-0.2-0.5-0.3c-0.2-0.2-0.5-0.3-0.5-0.3c-0.1,0-0.1,0,0-0.1c0.1-0.1,0-0.2-0.3-0.1c-0.1,0-0.1,0,0-0.1
		s0.1-0.1-0.2-0.2c-0.2-0.1-0.3-0.2-0.4-0.1c-0.1,0-0.1,0,0-0.1c0-0.1,0-0.2,0-0.1c-0.1,0-0.1,0-0.2,0c-0.1-0.1-1.5-0.8-2.1-1
		c-1-0.3-2.6-0.6-3.5-0.6c-0.3,0-0.6-0.1-0.7-0.2s-0.2-0.1-0.2-0.1s-0.1,0-0.1-0.1c0-0.1,0-0.1,0-0.1c0.1,0,0.1,0,0.1,0
		c0-0.1,0-0.1-0.1-0.2c-0.2-0.1-0.1-0.8,0-1c0.1-0.1,0.1-0.2,0-0.3c-0.1-0.2-0.1-0.2,0-0.2c0.1,0,0.1,0.1,0.1,0.2s0,0,0.1-0.1
		c0.1-0.1,0.2-0.2,0.2-0.2s0.1,0,0.2,0C17.9,13.8,19,13.8,19.6,13.9z M20.2,13.8c0,0-0.1,0-0.2,0S20,13.7,20.2,13.8
		C20.2,13.7,20.3,13.8,20.2,13.8z M16.5,19.8L16.5,19.8c0.2,0.1,0.3,0.2,0.5,0.4c0.2,0.2,0.4,0.3,0.5,0.3s0.2,0.1,0.2,0.1
		c0.1,0.1,0,0.1-0.1,0c-0.1,0,0,0.1,0.2,0.2c0.2,0.2,0.3,0.3,0.3,0.3s0.1,0,0.1,0.1c0.1,0.2,1.3,1.4,1.4,1.4c0.1,0,0.1,0,0,0
		c-0.1,0.1,0.3,0.5,0.7,0.7c0.1,0.1,0.1,0.1,0,0.1s0,0.1,0.2,0.2c0.2,0.2,0.3,0.3,0.4,0.2c0,0,0.1,0,0.2,0.1c0.1,0.1,0,0.1-0.1,0
		c-0.1-0.1,0,0.1,0.2,0.3s0.4,0.3,0.5,0.3c0.1,0,0.1,0,0.1,0.1c-0.1,0.2,0.4,0.6,0.5,0.5c0.1,0,0.1,0,0,0c0,0.1,0.2,0.3,0.4,0.5
		c0.2,0.2,0.5,0.4,0.5,0.3l0,0c0,0.2,0.5,0.5,0.5,0.5c0-0.1,0.1,0,0,0C23.3,26.4,23.9,27,24,27c0,0,0.1,0,0.2,0.1
		c0.1,0.1,0,0.1-0.1,0C24,27,24.7,27.9,25,28c0.1,0.1,0.2,0.6,0.2,1.1s-0.1,0.9-0.3,1.1c-0.1,0.1-0.2,0.2-0.1,0.2c0,0.1,0,0.1,0,0.1
		c-0.2,0-0.6,0.3-0.5,0.4c0,0-0.1,0.1-0.2,0c-0.2,0-0.2,0-0.2,0c0,0.1-8.5,0.1-8.8,0c-0.3-0.1-0.7-0.4-1-0.8l-0.2-0.3v-4.5
		c0-3.1,0-4.6,0.1-4.8c0.1-0.1,0.1-0.2,0-0.3c0-0.1,0-0.1,0-0.1c0.1,0,0.2,0,0.2-0.2c0.3-0.5,1.1-0.8,1.8-0.6
		C16.3,19.7,16.5,19.8,16.5,19.8z M28.6,23.6C28.7,23.7,28.7,23.7,28.6,23.6c-0.2-0.1-0.2-0.2-0.2-0.3c0-0.2,0-0.2,0.1,0
		C28.5,23.3,28.5,23.5,28.6,23.6z M13.8,30.6C13.8,30.7,13.8,30.7,13.8,30.6c-0.1,0.1-0.2,0-0.2,0C13.7,30.4,13.7,30.4,13.8,30.6z"
		/>
</g>
<path d="M-30.4,34.8h-8.6c-6.6,0-12-5.4-12-12v-8.6c0-6.6,5.4-12,12-12h8.6c6.6,0,12,5.4,12,12v8.6C-18.4,29.4-23.8,34.8-30.4,34.8z
	"/>
</svg>
