<?xml version="1.0" encoding="utf-8"?>
<!-- Generator: Adobe Illustrator 26.5.0, SVG Export Plug-In . SVG Version: 6.00 Build 0)  -->
<svg version="1.1" id="Capa_1" xmlns="http://www.w3.org/2000/svg" xmlns:xlink="http://www.w3.org/1999/xlink" x="0px" y="0px"
	 viewBox="0 0 31.3 31.3" style="enable-background:new 0 0 31.3 31.3;" xml:space="preserve">
<style type="text/css">
	.st0{fill:#FFFFFF;}
</style>
<g>
	<path class="st0" d="M23,13.2c0.8,0.8,0.8,2,0,2.8c-0.8,0.8-2,0.8-2.8,0l-2.6-2.6v9.1c0,1.1-0.9,2-2,2s-2-0.9-2-2v-9.1l-2.6,2.6
		c-0.4,0.4-0.9,0.6-1.4,0.6c-0.5,0-1-0.2-1.4-0.6c-0.8-0.8-0.8-2,0-2.8l7.4-7.4L23,13.2z M31.3,15.7c0,8.6-7,15.7-15.7,15.7
		C7,31.3,0,24.3,0,15.7C0,7,7,0,15.7,0C24.3,0,31.3,7,31.3,15.7z M27.3,15.7C27.3,9.2,22.1,4,15.7,4C9.2,4,4,9.2,4,15.7
		c0,6.4,5.2,11.7,11.7,11.7C22.1,27.3,27.3,22.1,27.3,15.7z"/>
</g>
</svg>
